<?xml version="1.0" standalone="no"?>
<!DOCTYPE svg PUBLIC "-//W3C//DTD SVG 20010904//EN"
 "http://www.w3.org/TR/2001/REC-SVG-20010904/DTD/svg10.dtd">
<svg version="1.0" xmlns="http://www.w3.org/2000/svg"
 width="2709.000000pt" height="4000.000000pt" viewBox="0 0 2709.000000 4000.000000"
 preserveAspectRatio="xMidYMid meet">

<g transform="translate(0.000000,4000.000000) scale(0.100000,-0.100000)"
fill="#000000" stroke="none">
<path d="M13376 37239 c-37 -5 -68 -17 -82 -29 -14 -14 -48 -26 -98 -35 -48
-8 -91 -22 -114 -38 -20 -14 -54 -30 -74 -37 -21 -6 -47 -24 -58 -40 -11 -16
-33 -31 -48 -35 -18 -4 -48 -29 -83 -70 -30 -36 -61 -67 -71 -70 -48 -16 -172
-217 -197 -318 -6 -27 -18 -59 -26 -71 -9 -13 -20 -67 -25 -122 -5 -54 -14
-115 -20 -134 -13 -44 -13 -104 0 -150 5 -19 14 -74 19 -121 6 -51 18 -100 29
-120 11 -19 22 -55 25 -80 6 -42 4 -47 -19 -58 -14 -6 -30 -11 -37 -11 -31 0
-89 -23 -116 -45 -16 -14 -43 -28 -61 -32 -20 -4 -49 -24 -79 -55 -25 -26 -67
-70 -93 -97 -27 -27 -48 -58 -48 -70 0 -24 -20 -71 -30 -71 -4 0 -20 -35 -36
-77 -26 -69 -29 -91 -29 -188 0 -104 3 -115 38 -205 21 -52 42 -105 47 -116 7
-19 3 -24 -28 -38 -20 -9 -48 -23 -61 -30 -14 -8 -59 -17 -100 -21 -100 -8
-159 -22 -187 -44 -13 -10 -50 -22 -81 -26 -80 -9 -130 -25 -149 -47 -10 -10
-27 -18 -38 -18 -41 0 -141 -31 -161 -50 -12 -11 -44 -24 -73 -30 -58 -11
-103 -31 -133 -61 -10 -10 -30 -19 -44 -19 -32 0 -74 -21 -99 -49 -11 -12 -30
-21 -43 -21 -28 0 -74 -22 -92 -44 -7 -8 -29 -20 -49 -27 -20 -6 -51 -26 -69
-45 -19 -20 -42 -34 -56 -34 -13 0 -41 -15 -63 -34 -22 -19 -56 -41 -76 -49
-20 -8 -41 -25 -48 -36 -6 -12 -24 -27 -40 -34 -28 -12 -125 -95 -215 -184
-24 -24 -47 -43 -52 -43 -12 0 -98 -107 -173 -215 -14 -20 -36 -51 -50 -68
-14 -18 -36 -52 -49 -77 -25 -46 -45 -75 -92 -133 -15 -18 -38 -56 -53 -84
-30 -60 -37 -62 -111 -34 -27 10 -69 22 -92 26 -23 4 -58 19 -78 35 -19 15
-58 34 -86 40 -32 8 -55 20 -65 35 -8 13 -29 29 -47 36 -18 7 -47 25 -64 40
-42 36 -74 41 -228 37 l-127 -3 -41 -49 c-23 -27 -50 -67 -59 -90 -22 -53 -23
-146 -2 -194 9 -20 20 -73 24 -118 4 -45 17 -101 29 -127 12 -25 21 -55 21
-66 0 -11 20 -60 45 -108 25 -48 45 -94 45 -103 0 -8 9 -34 19 -57 18 -38 39
-72 154 -241 20 -31 37 -67 37 -80 0 -33 102 -220 129 -237 5 -3 17 -29 25
-58 18 -62 89 -203 117 -233 11 -12 23 -39 26 -60 5 -35 54 -139 89 -189 8
-11 14 -27 14 -36 0 -9 27 -70 59 -135 33 -66 71 -148 85 -183 14 -36 32 -72
39 -80 8 -9 26 -50 41 -91 15 -41 36 -90 47 -109 11 -18 36 -75 55 -125 20
-50 42 -98 50 -107 8 -9 21 -38 29 -65 8 -27 33 -84 55 -127 22 -44 40 -84 40
-90 0 -18 57 -136 80 -164 11 -14 20 -39 20 -55 0 -17 20 -69 45 -117 25 -48
45 -94 45 -102 0 -9 13 -42 29 -75 16 -32 43 -94 60 -138 17 -43 40 -91 51
-106 11 -16 20 -39 20 -53 0 -14 20 -63 43 -109 24 -47 49 -106 56 -132 6 -26
18 -58 26 -70 8 -12 24 -49 35 -81 11 -32 36 -87 55 -122 19 -35 35 -74 35
-87 0 -13 12 -45 26 -72 14 -27 39 -85 55 -129 17 -44 39 -92 49 -107 11 -15
20 -36 20 -48 0 -21 82 -229 125 -315 14 -28 25 -56 25 -62 0 -7 14 -46 30
-88 17 -42 30 -78 30 -80 0 -4 -77 -45 -259 -138 -246 -127 -490 -359 -568
-542 -34 -79 -73 -217 -73 -256 0 -48 -28 -82 -93 -112 -63 -29 -176 -131
-334 -302 -61 -65 -133 -188 -133 -227 0 -10 -12 -41 -26 -69 -26 -49 -27 -54
-27 -252 0 -184 2 -206 20 -242 11 -22 23 -56 27 -76 6 -32 58 -125 78 -140 5
-3 28 -35 52 -71 23 -37 70 -90 102 -118 32 -28 65 -63 72 -76 8 -15 25 -27
43 -31 18 -3 41 -19 56 -39 14 -19 32 -34 40 -34 20 0 87 -69 108 -111 10 -19
25 -43 35 -54 10 -11 20 -39 23 -61 2 -23 24 -74 48 -115 23 -40 46 -93 51
-117 4 -24 16 -55 26 -70 11 -15 22 -47 26 -72 4 -25 14 -56 23 -69 9 -14 22
-45 29 -70 19 -64 63 -190 79 -226 7 -16 17 -48 21 -70 3 -22 13 -53 22 -70 8
-16 21 -56 28 -87 8 -32 20 -69 28 -81 8 -12 17 -44 21 -72 4 -27 15 -64 26
-81 10 -17 19 -47 19 -65 0 -19 11 -65 25 -103 13 -38 27 -90 31 -115 3 -25
13 -57 21 -70 9 -13 20 -60 24 -104 5 -43 18 -98 28 -120 10 -23 22 -71 26
-107 3 -36 15 -85 25 -110 10 -25 22 -76 25 -115 4 -38 15 -88 25 -111 9 -22
21 -76 25 -119 4 -43 14 -97 22 -119 7 -23 21 -90 29 -151 8 -60 20 -130 28
-155 8 -25 17 -83 21 -130 3 -47 12 -112 20 -145 7 -33 19 -107 25 -165 6 -58
17 -145 25 -195 25 -157 66 -522 90 -805 55 -651 81 -1454 65 -2040 -16 -607
-61 -1377 -100 -1710 -5 -47 -17 -152 -25 -235 -237 -2291 -899 -4858 -1881
-7303 -227 -564 -306 -744 -323 -736 -43 18 -104 26 -155 20 -44 -6 -104 -31
-254 -105 -109 -54 -203 -106 -211 -115 -7 -9 -19 -16 -26 -16 -13 0 -189
-104 -218 -129 -10 -8 -34 -24 -52 -36 -62 -37 -219 -162 -308 -246 -151 -141
-337 -385 -337 -444 0 -7 -7 -19 -17 -26 -19 -17 -68 -122 -78 -170 -4 -19
-16 -63 -27 -99 -14 -47 -21 -108 -25 -217 l-6 -153 -51 -31 c-28 -18 -77 -48
-109 -68 -32 -20 -73 -48 -92 -63 -18 -16 -37 -28 -43 -28 -6 0 -30 -18 -53
-40 -24 -22 -48 -40 -54 -40 -7 0 -27 -15 -46 -33 -19 -18 -47 -41 -63 -51
-71 -45 -294 -266 -358 -357 -57 -79 -69 -96 -78 -119 -6 -13 -18 -31 -26 -40
-36 -37 -117 -171 -128 -210 -4 -14 -15 -45 -26 -70 -68 -166 -87 -331 -71
-618 8 -138 13 -174 30 -207 12 -21 21 -51 21 -65 0 -28 42 -113 72 -146 10
-12 24 -39 30 -60 17 -64 84 -169 154 -240 36 -37 72 -81 81 -98 17 -34 106
-126 121 -126 5 0 31 -27 58 -59 27 -33 62 -65 77 -72 16 -6 39 -26 53 -44 14
-19 37 -35 55 -39 19 -3 36 -16 47 -35 10 -18 30 -33 52 -40 23 -7 41 -20 48
-35 7 -17 24 -29 50 -36 23 -6 47 -21 56 -35 9 -14 29 -28 44 -31 40 -10 85
-35 99 -54 7 -10 27 -20 44 -24 17 -3 48 -21 69 -39 24 -22 51 -36 79 -41 25
-4 51 -16 64 -30 12 -13 49 -31 81 -40 33 -10 73 -28 90 -41 17 -13 52 -29 79
-35 26 -7 64 -25 84 -41 19 -16 44 -29 55 -29 23 0 54 -15 89 -45 15 -12 54
-27 88 -34 38 -7 72 -22 92 -38 19 -16 50 -29 81 -34 28 -5 78 -21 112 -37 33
-17 85 -35 114 -41 29 -6 69 -22 90 -35 20 -13 69 -29 107 -36 39 -7 82 -21
96 -31 29 -20 128 -49 169 -49 25 0 46 -10 92 -43 16 -11 60 -22 119 -29 65
-7 106 -18 134 -34 29 -17 68 -26 140 -34 75 -8 115 -18 160 -40 50 -25 79
-31 175 -39 63 -5 131 -15 151 -24 36 -15 105 -28 253 -47 52 -7 96 -19 125
-36 41 -23 63 -27 193 -35 111 -7 165 -15 220 -33 54 -18 105 -26 198 -31 186
-9 264 -22 326 -51 53 -25 65 -26 321 -35 238 -9 274 -12 337 -33 68 -23 86
-24 456 -29 372 -5 604 -19 876 -52 106 -13 144 -13 310 0 104 7 286 17 404
20 382 11 874 36 915 47 22 5 222 14 445 18 223 5 430 13 460 19 30 6 156 13
280 17 207 5 229 7 280 29 64 28 220 55 317 55 38 1 109 10 158 20 50 11 141
29 204 40 62 11 117 22 121 25 5 3 39 10 77 15 37 5 122 20 188 33 66 14 147
28 179 31 32 4 86 13 120 21 34 7 107 18 164 23 82 7 107 13 125 30 25 24 78
37 187 47 53 5 91 16 127 35 34 19 76 31 120 36 45 4 85 16 118 35 38 21 73
30 148 38 81 8 103 14 128 35 21 18 42 26 68 26 52 0 118 22 165 53 25 17 52
27 76 27 50 0 100 18 131 46 16 16 37 24 60 24 33 0 72 17 122 53 14 10 42 20
63 23 72 10 85 15 116 44 19 19 42 30 59 30 40 0 79 17 100 44 13 16 33 25 66
30 32 4 57 15 78 35 18 17 51 33 81 40 37 9 57 20 73 42 13 17 31 29 45 29 39
0 84 20 100 45 8 13 30 26 47 30 18 4 44 20 58 34 14 15 45 33 68 39 22 7 52
24 65 38 12 13 38 31 56 39 19 8 46 28 62 45 15 16 34 30 42 30 8 0 29 16 47
35 17 19 38 35 45 35 8 0 34 19 58 43 25 23 65 60 89 83 25 22 52 52 62 67 9
15 28 29 41 33 24 6 91 77 116 123 15 28 8 20 105 134 40 49 79 105 86 125 6
21 17 44 23 52 26 32 97 190 131 290 35 101 37 112 42 280 6 194 -2 265 -42
390 -15 47 -39 126 -54 175 -50 164 -210 397 -422 614 -30 31 -158 143 -187
165 -84 61 -142 107 -149 120 -4 7 -22 20 -38 29 -17 8 -39 25 -50 37 -11 12
-41 33 -66 45 -25 13 -51 30 -58 39 -7 8 -26 18 -42 21 -16 4 -42 19 -58 35
-28 28 -28 31 -33 173 -4 100 -10 153 -21 173 -9 17 -23 59 -32 94 -20 81
-168 379 -209 424 -17 18 -44 50 -61 71 -95 120 -249 275 -296 300 -14 8 -34
25 -43 39 -9 15 -23 26 -31 26 -8 0 -32 15 -52 34 -21 18 -49 39 -63 46 -14 7
-38 24 -55 37 -53 43 -99 72 -155 99 -30 15 -66 37 -80 49 -14 12 -48 30 -76
39 -29 9 -60 26 -70 37 -9 11 -43 27 -73 36 -31 8 -71 29 -89 44 -18 17 -50
32 -73 35 -23 4 -54 18 -70 31 -22 19 -51 28 -120 39 -89 13 -119 25 -119 48
0 6 -15 40 -33 76 -19 36 -37 78 -41 94 -4 17 -24 59 -45 95 -21 36 -43 87
-50 113 -6 26 -22 68 -36 94 -14 26 -25 53 -25 61 0 8 -16 47 -36 86 -19 40
-44 97 -54 127 -10 30 -41 111 -70 180 -28 69 -59 148 -70 175 -10 28 -32 86
-48 130 -60 157 -155 424 -207 580 -13 39 -49 142 -80 230 -31 88 -64 187 -75
220 -29 93 -50 156 -70 210 -46 124 -190 570 -190 588 0 6 -9 34 -19 62 -28
71 -62 181 -77 245 -20 83 -62 231 -78 270 -7 19 -17 60 -21 90 -4 30 -14 67
-21 82 -8 15 -21 59 -29 98 -8 39 -20 80 -26 91 -5 11 -17 52 -24 92 -17 87
-57 240 -78 299 -9 24 -18 69 -21 100 -4 32 -14 79 -25 105 -10 27 -21 71 -25
98 -4 28 -16 73 -26 100 -10 28 -21 77 -25 110 -4 33 -13 81 -21 107 -19 57
-61 254 -79 364 -7 45 -18 91 -24 102 -6 11 -17 65 -25 119 -7 55 -20 112 -28
129 -9 16 -18 63 -21 104 -4 42 -13 95 -22 119 -8 23 -20 82 -26 129 -6 48
-20 114 -30 147 -9 33 -21 100 -24 150 -4 49 -15 114 -25 145 -9 30 -20 102
-24 159 -4 57 -13 122 -21 145 -18 53 -35 158 -35 217 0 26 -7 66 -16 90 -9
24 -22 117 -30 205 -7 89 -18 174 -24 189 -6 15 -15 82 -20 148 -13 152 -27
267 -39 332 -6 28 -13 136 -16 240 -4 116 -14 231 -26 295 -10 58 -23 193 -29
300 -6 107 -17 269 -25 360 -8 91 -19 271 -25 400 -6 129 -15 301 -20 383 -15
229 -12 823 4 942 8 55 17 154 20 220 3 66 11 224 17 350 6 127 19 300 29 385
10 85 22 211 25 280 4 69 12 159 20 200 7 41 16 131 20 200 4 69 13 152 21
185 8 33 20 107 25 165 6 58 19 132 30 165 10 33 26 110 34 170 8 61 24 151
35 200 11 50 20 108 20 130 0 22 9 65 20 95 11 30 19 70 20 87 0 18 21 124 46
235 26 112 52 228 59 258 7 30 19 73 28 95 9 22 21 73 26 112 6 40 17 87 25
105 8 18 27 85 42 148 15 63 38 146 52 185 23 66 48 150 77 260 8 28 27 88 44
135 17 47 37 108 45 135 8 28 28 86 44 130 16 44 44 118 61 165 17 47 39 96
50 110 10 14 23 49 30 78 6 29 19 69 30 90 10 20 31 69 46 107 25 63 74 144
122 201 10 12 37 31 60 43 23 11 46 27 50 35 4 7 27 23 51 35 23 12 42 25 42
29 0 7 50 60 145 152 40 39 53 57 70 92 21 47 55 101 70 113 7 5 16 30 19 55
4 25 17 61 29 80 21 33 22 46 22 231 l0 195 -34 65 c-18 35 -42 87 -51 115
-10 28 -29 69 -43 91 -42 66 -179 208 -239 247 -15 10 -30 26 -33 36 -3 11
-16 22 -28 26 -12 4 -38 24 -60 45 -21 22 -44 39 -52 39 -16 0 -65 60 -65 80
0 38 -97 300 -134 362 -24 40 -136 169 -184 212 -13 12 -56 51 -94 88 -39 37
-80 71 -92 74 -11 4 -35 18 -52 31 -17 13 -52 30 -77 39 -25 8 -53 24 -63 35
-10 11 -41 26 -71 35 -29 8 -59 24 -66 34 -7 10 -25 24 -40 31 -15 7 -27 20
-27 29 0 26 60 202 80 235 10 16 22 48 26 70 4 22 18 60 31 84 12 24 23 51 23
60 0 9 6 28 14 43 8 14 19 42 25 61 7 19 21 43 31 52 13 12 20 31 20 54 0 20
11 58 24 86 14 27 37 79 51 115 15 36 38 88 51 116 13 28 24 60 24 71 0 22 51
123 81 162 11 13 19 40 19 61 0 38 24 98 106 266 24 50 44 100 44 110 1 28 33
94 69 138 19 24 31 50 31 68 0 16 34 105 75 197 41 93 75 175 75 183 0 20 57
127 81 154 12 12 19 35 19 58 0 41 43 128 80 161 14 12 20 31 20 59 0 47 25
107 62 151 15 18 27 49 31 78 8 54 27 95 69 149 16 21 32 54 35 75 7 43 34
103 68 148 12 17 26 49 30 73 4 23 18 58 31 77 13 20 24 38 24 41 0 3 10 19
21 36 12 16 27 48 34 71 13 44 50 117 79 158 49 70 63 100 68 140 3 28 18 64
41 99 21 30 52 78 71 107 19 28 38 68 42 88 3 19 16 50 28 68 12 18 27 43 34
57 6 14 27 45 46 70 19 25 47 70 62 100 15 30 36 68 47 83 11 16 26 49 33 75
8 25 21 56 29 69 22 33 65 150 77 208 5 28 19 65 30 83 17 28 20 44 15 100
-11 134 -71 217 -185 259 -79 29 -76 29 -127 9 -22 -8 -55 -15 -73 -16 -38 0
-79 -19 -106 -49 -12 -13 -31 -21 -50 -21 -18 0 -52 -11 -76 -24 -85 -46 -105
-54 -170 -66 -35 -6 -77 -18 -92 -26 -32 -17 -74 -10 -82 14 -3 10 -21 37 -40
62 -21 27 -40 67 -47 100 -7 30 -22 67 -33 81 -12 14 -32 45 -46 68 -50 85
-167 220 -324 373 -203 198 -209 204 -257 229 -22 11 -43 27 -46 35 -3 8 -23
24 -44 34 -21 11 -44 28 -51 38 -7 11 -31 28 -54 40 -22 11 -46 27 -53 36 -7
8 -38 25 -69 36 -32 12 -66 30 -77 39 -11 10 -42 26 -70 36 -27 10 -60 27 -71
37 -12 11 -50 28 -84 38 -34 10 -72 28 -84 39 -11 10 -48 27 -81 37 -33 9 -71
25 -85 36 -15 10 -58 27 -96 37 -38 10 -87 28 -109 39 -22 12 -71 26 -110 32
-38 6 -94 22 -123 37 -42 20 -76 28 -153 34 -86 7 -104 11 -130 33 -17 14 -39
26 -49 26 -31 0 -31 15 2 91 33 74 33 75 33 244 0 157 -2 176 -26 245 -36 102
-119 229 -168 255 -14 7 -36 27 -49 44 -12 17 -31 31 -42 31 -10 0 -32 11 -49
26 -16 14 -61 35 -98 48 -37 13 -68 27 -67 32 1 29 18 95 34 134 9 25 20 77
24 117 3 39 11 84 16 99 14 35 14 177 1 202 -5 10 -15 57 -21 103 -6 52 -19
103 -35 133 -14 27 -25 58 -25 68 0 25 -75 164 -125 233 -38 52 -190 197 -225
215 -19 10 -41 28 -47 39 -7 11 -30 25 -51 30 -21 6 -59 24 -83 41 -32 21 -66
33 -114 39 -44 7 -75 17 -89 30 -39 36 -265 53 -420 30z m-61 -280 c108 -20
218 -93 296 -198 l42 -56 1 -145 c1 -145 1 -145 -31 -207 -18 -34 -60 -92 -94
-127 -53 -57 -70 -69 -128 -87 -103 -32 -204 -36 -287 -11 -166 51 -270 170
-306 350 -9 43 -8 69 6 135 31 143 103 241 223 305 94 50 171 61 278 41z m463
-1522 c78 -30 100 -45 142 -89 28 -29 66 -85 86 -125 34 -68 36 -75 33 -155
-3 -69 -9 -94 -36 -148 l-32 -65 -398 0 c-361 0 -403 -2 -453 -19 -44 -14
-104 -20 -295 -26 -132 -4 -277 -13 -322 -20 -82 -12 -82 -12 -117 15 -19 15
-50 50 -68 78 l-33 52 0 130 c0 118 2 135 24 179 29 59 109 138 166 165 129
61 239 70 805 66 l405 -3 93 -35z m152 -867 c465 -29 854 -87 1219 -181 172
-44 458 -135 466 -148 2 -5 -23 -47 -56 -94 -380 -535 -1369 -943 -2576 -1064
l-172 -17 -78 22 c-144 42 -271 93 -453 182 -100 49 -201 92 -225 96 -46 6
-141 -15 -183 -42 -48 -31 -249 -131 -287 -144 -22 -7 -60 -23 -85 -35 -86
-43 -142 -49 -291 -31 -74 10 -150 21 -169 26 -19 5 -98 20 -175 34 -77 14
-183 37 -236 50 -53 14 -125 28 -160 31 -37 4 -81 17 -104 30 -22 12 -71 32
-110 43 -119 36 -118 31 -17 152 86 103 213 218 362 328 41 30 92 70 113 89
20 18 45 33 56 33 10 0 36 13 58 29 21 15 59 37 84 48 24 11 57 32 72 47 15
14 36 26 46 26 23 0 91 28 111 45 8 7 42 23 74 34 33 11 69 30 81 41 12 11 47
25 81 31 32 6 81 22 109 36 27 13 71 28 98 34 26 5 76 20 110 35 34 14 94 31
132 39 39 7 117 24 175 38 176 43 457 95 605 111 326 35 444 46 520 49 211 8
657 6 805 -3z m1279 -1435 c345 -210 711 -345 1103 -407 125 -19 181 -22 438
-22 257 0 313 3 439 22 275 43 553 126 780 233 57 27 106 47 109 44 7 -7 -23
-114 -59 -210 -30 -79 -31 -81 -125 -155 -383 -301 -756 -499 -1104 -584 -199
-48 -283 -58 -547 -63 -271 -6 -405 2 -763 43 -722 83 -873 97 -1215 114 -369
18 -783 11 -1185 -20 -245 -19 -466 -49 -453 -60 4 -5 96 -43 203 -85 344
-137 554 -245 820 -420 197 -131 346 -250 485 -390 669 -672 900 -1578 680
-2670 -80 -394 -231 -842 -393 -1167 l-57 -113 -85 -7 c-47 -3 -232 -12 -411
-18 -724 -25 -1516 34 -2084 155 -172 37 -322 78 -335 92 -20 21 -83 195 -91
251 -10 69 -29 113 -64 152 -13 14 -67 133 -120 265 -255 626 -557 1350 -780
1870 -158 368 -245 564 -400 910 -191 424 -201 448 -275 600 -40 83 -92 191
-114 240 -23 50 -60 122 -83 160 -22 39 -44 81 -48 95 -4 14 -49 100 -101 192
-52 91 -94 170 -94 175 0 5 -33 66 -73 135 -41 69 -95 178 -121 241 -64 156
-126 418 -98 416 4 0 41 -20 82 -44 112 -67 323 -169 420 -203 47 -17 102 -37
122 -46 42 -18 232 -72 328 -93 271 -59 667 -80 920 -48 404 50 674 128 999
291 l164 82 156 -79 c638 -322 1385 -396 2084 -208 250 67 555 200 757 328 52
33 96 60 97 61 1 0 42 -25 92 -55z m-4198 -5521 c-48 -43 -81 -107 -81 -158 0
-156 265 -311 735 -427 728 -180 1873 -237 2865 -144 536 51 1012 151 1297
272 l82 35 52 -28 c28 -16 69 -48 90 -73 92 -104 72 -218 -63 -357 -205 -212
-611 -400 -1153 -534 -469 -117 -880 -167 -1435 -177 -347 -6 -586 4 -920 38
-589 59 -1230 202 -1789 398 -162 57 -186 74 -272 194 -92 130 -119 288 -71
420 67 186 276 376 572 522 62 30 117 55 122 55 4 0 -10 -16 -31 -36z m-871
-1042 c37 -69 125 -179 149 -187 10 -3 42 -33 71 -68 29 -34 64 -68 79 -76 14
-8 43 -29 64 -47 20 -19 43 -34 50 -34 7 0 28 -13 47 -28 44 -36 74 -52 97
-52 10 0 30 -13 44 -29 14 -16 45 -35 70 -42 24 -7 59 -23 77 -36 18 -12 56
-29 85 -39 29 -9 61 -23 72 -30 11 -7 74 -31 140 -54 500 -171 1004 -267 1725
-327 323 -27 973 -24 1330 5 329 28 458 43 720 88 653 111 1177 284 1535 510
l86 53 16 -37 c23 -56 13 -155 -23 -223 -42 -78 -181 -213 -304 -295 -405
-270 -1085 -492 -1841 -603 -411 -60 -745 -83 -1209 -83 -796 -1 -1505 88
-2302 287 -259 65 -356 93 -673 197 l-280 92 -62 59 c-87 83 -152 184 -189
295 -27 80 -31 104 -28 168 5 83 43 229 72 271 10 16 34 51 53 79 52 77 268
262 290 248 5 -2 22 -31 39 -62z m2793 -2492 c110 -8 158 -15 185 -29 37 -19
150 -51 179 -51 8 0 27 -8 41 -18 15 -10 54 -29 87 -42 72 -29 202 -95 269
-138 28 -18 55 -32 61 -32 6 0 22 -11 34 -24 13 -14 37 -30 54 -37 18 -6 46
-26 63 -43 16 -17 70 -67 118 -111 103 -94 96 -87 189 -195 41 -47 95 -107
121 -135 57 -59 96 -116 138 -199 47 -93 157 -285 188 -328 15 -21 31 -55 35
-75 4 -21 22 -72 42 -113 78 -170 176 -460 253 -753 102 -390 174 -877 212
-1422 17 -245 17 -1118 0 -1395 -29 -474 -85 -1036 -147 -1485 -38 -276 -111
-739 -125 -795 -4 -19 -16 -84 -25 -145 -9 -60 -20 -126 -25 -145 -5 -19 -16
-73 -25 -120 -16 -90 -58 -299 -99 -490 -13 -63 -33 -160 -45 -215 -11 -55
-28 -127 -36 -160 -8 -33 -51 -215 -95 -405 -80 -341 -113 -478 -151 -615 -10
-38 -33 -124 -50 -190 -17 -66 -41 -158 -55 -205 -34 -121 -93 -345 -108 -410
-7 -30 -25 -93 -39 -140 -14 -47 -35 -121 -47 -165 -30 -112 -66 -231 -112
-365 -35 -102 -63 -198 -99 -340 -6 -25 -20 -68 -31 -97 -11 -29 -28 -78 -38
-110 -77 -248 -344 -1056 -449 -1358 -154 -444 -355 -1008 -421 -1180 -11 -27
-35 -93 -54 -145 -47 -128 -194 -517 -296 -780 -118 -305 -606 -1522 -625
-1559 -14 -28 -19 -31 -53 -26 -20 3 -116 12 -212 20 -1336 117 -2491 409
-2867 723 -24 20 -43 41 -43 47 0 7 27 74 61 151 272 622 521 1222 649 1564
15 41 67 178 114 304 394 1042 777 2279 1041 3359 173 711 330 1492 425 2117
12 74 29 191 40 260 102 662 187 1541 220 2260 13 304 14 1682 1 1950 -46 905
-149 1779 -302 2548 -47 236 -47 257 1 407 97 302 295 557 606 780 110 79 410
220 489 230 28 4 77 18 110 32 93 40 349 53 648 33z m-4306 -15668 c-90 -136
-111 -188 -112 -272 0 -63 5 -85 29 -133 73 -150 283 -306 586 -435 1338 -573
4351 -784 6795 -477 876 111 1617 289 2090 502 l79 36 63 -32 c244 -127 354
-308 308 -506 -103 -443 -924 -947 -2096 -1284 -1332 -383 -2943 -519 -4569
-385 -1270 104 -2567 383 -3810 818 l-215 76 -90 93 c-647 666 -349 1410 797
1987 99 50 183 89 186 86 3 -3 -15 -37 -41 -74z m-1452 -1758 c115 -271 451
-614 840 -856 795 -496 2006 -858 3475 -1038 744 -91 1433 -127 2260 -117 522
6 690 13 1140 47 1765 135 3309 547 4208 1123 110 71 107 71 209 -37 161 -170
184 -348 73 -571 -53 -107 -117 -190 -242 -311 -635 -618 -2112 -1169 -3823
-1428 -727 -110 -1389 -162 -2195 -173 -2113 -28 -4242 334 -6319 1073 l-164
58 -82 82 c-220 220 -338 412 -401 656 -62 237 -18 508 121 753 126 220 354
456 642 663 78 56 214 142 224 142 3 0 19 -30 34 -66z"/>
</g>
</svg>
